<svg xmlns="http://www.w3.org/2000/svg" width="351" height="324" viewBox="0 0 351 324">
  <g fill="none" fill-rule="evenodd" transform="translate(24 29)">
    <path stroke="#FCDE32" stroke-linecap="round" stroke-linejoin="round" stroke-width="27" d="M179.176585,7.88671875 C135.99664,27.2375767 101.638108,36.8027511 67.1755,60.734375 C6.1913976,103.083132 34.2304308,99.8379959 114.698045,66.734375 C171.055141,43.5495945 302,-20 256.985943,7.88671875 C249.808019,15.6983098 242.629556,21.2764348 235.450554,24.6210938 C189.252836,46.1443668 89,97 30.3405004,125 C18.4514739,130.675001 -9.2622096,151.684458 4,152 C33.8881412,152.711116 116.317715,111.671148 144.569605,102.816406 C155.04095,99.5344646 165.081001,95.1756532 175.598041,92.015625 C213.271431,80.6959985 250.646465,68.3174736 289.097021,59.390625 C293.362429,58.4003494 283.275178,65.4514244 279.74705,67.8359375 C272.75022,72.5648004 265.163292,76.5409118 257.684399,80.6210938 C231.636282,94.8318951 206.392696,110.414802 179.176585,122.703125 C118.460263,150.1171 137.540549,165.63708 76.335009,192.145252 C68.457801,195.556878 90.77236,197.245895 108,191 C196.814362,158.800277 80.151627,169.521164 229.017198,130.859375 C239.481915,128.141589 267.467106,125.277531 258.495938,130.859375 C221.010095,154.182996 181.909383,175.311038 143.948,197.996094 C133.049135,204.509064 122.296706,211.245808 111.935357,218.441406 C104.081175,223.895864 66.021104,243.77682 59.452924,250.480469 C55.782472,254.226624 68.342405,244.465312 73.184345,242.042969 C83.917646,236.673276 124.810312,217.124169 135.99664,212.574219 C167.617597,199.712646 143.018583,244.638726 156.682264,239.785156 C170.062826,235.032155 181.177784,231.711287 195,228.140166 C201.772029,226.390538 196.497558,152.972722 179.176585,7.88671875 Z"/>
    <path stroke="#FCDE32" stroke-linecap="round" stroke-linejoin="round" stroke-width="27" d="M225,56.8995844 C194.171117,73.4263723 128.916299,106.368569 98.47047,123.262555 C44.594353,153.157699 64.056818,146.631306 135.145552,123.262555 C168.337827,112.351376 217.676497,94.7390407 283.161562,70.4255507 C279.369451,80.3044153 252.220616,90.6979382 242.707234,94.2395674 C201.894077,109.433434 95.30264,139.163227 60.620277,164.393852 C52.357782,170.404628 30.2835634,177.77725 42,178 C68.404538,178.501996 136.576443,154.984651 161.535442,148.733847 C170.786302,146.417035 179.656138,143.340031 188.947368,141.10928 C222.229746,133.118447 255.248544,124.380108 289.217507,118.078402 C292.985762,117.379339 284.074227,122.356886 280.957319,124.040179 C274.776003,127.378412 268.073366,130.185258 261.466174,133.06557 C238.454088,143.097362 216.152761,154.097762 192.108815,162.772425 C138.469267,182.124698 133.071747,184.617312 79,203.330155 C72.040918,205.738515 65.702314,209.029101 59.508855,212.355546 C57.026409,213.688843 50.217148,217.97855 53.128756,217.225341 C183.031714,183.620508 126.891706,187.392345 283.916648,154.805925 C293.161654,152.887366 270.108661,164.589769 262.183125,168.530144 C229.066432,184.994926 194.523093,199.909787 160.986288,215.923788 C151.357737,220.521472 141.858554,225.277123 132.704869,230.356692 C125.766129,234.207143 92.142138,248.241653 86.339511,252.973942 C83.096867,255.618455 94.192881,248.727678 98.47047,247.01768 C107.952754,243.227067 144.079188,229.426818 153.961696,226.214884 C181.897081,217.135549 219.299062,206.265434 247.144643,197.04299 C251.774658,195.509531 259.950109,187.488358 260.084079,191.169454 C260.268934,196.248752 252.143296,199.598991 247.373457,203.330155 C223.652102,221.885973 184.085938,235.791047 154.503223,248.253053 C148.320726,250.85749 129.80971,258.142268 136.796827,257.027509 C149.46006,255.007154 160.165198,247.850096 172.236313,244.423828 C184.057308,241.068555 160.978534,228.359126 173.189705,225.838174 C182.163782,223.985509 193.43394,253.07245 173.189705,261.420252 C166.546413,264.159643 142.819834,271.91672 150.327799,270.864787 C165.977887,268.672069 177.01841,256.689262 192.108815,252.973942 C205.188369,249.753701 225.114867,252.010387 238.676293,250.097839 C240.06747,249.901644 237.264814,251.941963 236.14027,252.565827 C231.935119,254.898722 177.267821,259.552026 173.189705,262 C169.880127,263.986644 187.150225,195.619838 225,56.8995844 Z"/>
    <g transform="translate(46 13)">
      <path fill="#F3D4B7" stroke="#000" stroke-linecap="round" stroke-linejoin="round" d="M52.9435331,228.082966 C50.0071887,233.576866 49.5830652,237.252835 49.5855289,240.838448 C49.5879926,244.42406 52.3982838,248.070102 57.2956464,243.942202 C62.1930091,239.814301 62.3196652,231.551851 63.2982861,229.486889" transform="rotate(28 56.442 236.928)"/>
      <path fill="#F3D4B7" stroke="#000" stroke-linecap="round" stroke-linejoin="round" d="M151.330411,228.082122 C148.393577,233.577748 147.968807,237.254564 147.970554,240.840919 C147.972301,244.427274 150.781281,248.073509 155.678455,243.943772 C160.575627,239.814035 160.703908,231.549848 161.682739,229.484262" transform="scale(-1 1) rotate(18 0 -740.608)"/>
      <g stroke="#000" stroke-linecap="round" stroke-linejoin="round" transform="translate(158.642 33.047)">
        <path fill="#5CC8E6" d="M8.23387326,6.70268243 C4.37672802,15.0115629 4.35021724,16.3884358 4.37978173,21.8231904 C4.40934623,27.2579451 14.9547789,32.6442172 21.4248167,26.4179889 C27.8948545,20.1917608 27.4659059,8.69700348 28.7496944,5.57321309" transform="rotate(-149 16.563 17.39)"/>
        <path fill="#4AAED9" d="M10.6258929,27.7196767 C9.8248365,28.1251854 11.6573759,26.3990207 16.814791,23.9597637 C21.9722061,21.5205066 24.0351721,17.3877265 16.2918449,18.405482 C13.6031031,18.7588807 10.7410604,20.9995272 7.70571665,25.1274216"/>
      </g>
      <g stroke="#000" stroke-linecap="round" stroke-linejoin="round" transform="matrix(-1 0 0 1 67.364 36.714)">
        <path fill="#5CC8E6" d="M13.4040147,7.47181187 C9.54686945,15.7806923 3.32307072,14.8544723 3.35263522,20.289227 C3.38219972,25.7239817 16.5800928,29.5164948 23.0501306,23.2902665 C29.5201684,17.0640382 28.9193172,9.28865001 30.2031057,6.16485964" transform="rotate(-149 16.778 16.338)"/>
        <path fill="#4AAED9" d="M10.6258929,22.5537016 C9.8248365,22.9592103 9.5944099,20.9402365 16.814791,18.7937886 C24.0351721,16.6473407 24.0351721,13.2549464 16.2918449,14.2727019 C13.6031031,14.6261006 10.7410604,17.2111454 7.70571665,22.0278366"/>
      </g>
      <g transform="translate(43.322 44.427)">
        <path fill="#5CC8E6" stroke="#000" d="M17.1222152,19.7659087 C7.08585818,30.3774243 0.180615877,41.9085005 0.180615877,57.6241197 C0.180615877,83.4998005 2.63148745,86.1281245 7.8187052,94.0879802 C8.29216601,96.2778593 8.63446592,98.9206555 8.77103992,102.339387 C8.94801065,106.769332 5.47975712,113.225853 4.83715924,117.514888 C2.83222297,130.896879 1.30511265,143.29472 2.63148745,152.847086 C5.04450851,170.225326 9.52319665,182.107983 19.0858701,188.094573 C35.5895984,198.426523 63.4396398,200.492913 86.1322661,195.326938 C108.824892,190.160963 112.018652,186.589697 117.076756,181.610242 C122.134861,176.630788 131.517518,159.165113 129.454552,140.567602 C127.391586,121.970092 126.459414,115.466404 128.52238,97.8199655 C132.549001,92.638445 136.106579,84.1726437 137.605922,77.1087961 C141.823869,57.2368027 141.823869,43.8348516 132.549001,33.1153203 C119.139722,17.617395 115.152606,5.30117835 91.3889923,2.20159329 C67.6253785,-0.897991766 35.6889094,0.135203255 17.1222152,19.7659087 Z"/>
        <path fill="#4AAED9" fill-rule="nonzero" d="M21.1525051,15.9606134 C29.2290898,13.8081805 42.0960925,10.7661311 46.4167357,9.03098342 C52.6056338,6.54555443 96.9594035,8.95579143 99.0223695,8.95579143 C99.8913046,8.95579143 105.884259,9.56655156 112.607607,10.2076542 C119.98504,15.8990917 124.619691,23.9509299 132.549001,33.1153203 C141.823869,43.8348516 141.823869,57.2368027 137.605922,77.1087961 C136.106579,84.1726437 132.549001,92.638445 128.52238,97.8199655 C127.794879,104.042963 127.439854,108.880233 127.375548,113.350838 C112.39736,116.421892 95.1418521,118.591824 83.5501243,119.308672 C59.8260149,120.775801 15.4722452,100.658621 17.5352113,100.658621 C19.5981773,100.658621 36.1019056,104.046705 50.5426678,105.385892 C64.98343,106.725079 100.008412,106.935685 116.557581,95.5705394 C124.720539,89.9646259 129.517101,83.1419285 131.414572,76.5319243 C131.664458,75.6614251 126.984503,78.707767 123.024059,79.192784 C117.184602,79.9079149 109.415996,79.294101 102.252088,77.4896266 C94.9928531,75.6611408 85.5138629,63.8960535 85.5138629,58.1000672 C85.5138629,55.0606083 132.692528,60.7371692 133.061309,58.3830325 C134.542624,48.9269757 123.777962,30.3827382 107.274234,21.8736843 C90.7705054,13.3646303 44.3537697,19.4690534 33.0074565,23.438396 C32.4423392,23.6360941 47.3463553,27.1312747 54.8045134,39.5732028 C57.8191565,44.602323 58.3598336,51.1258172 57.7630489,60.2334205 C56.8354223,74.3900415 40.2278376,84.2053942 31.9759735,84.2053942 C29.081409,84.2053942 8.78720375,84.2466617 2.91698192,67.2579133 C0.992519977,61.6884135 3.80229707,48.390626 11.3463132,27.3645508 C11.3949162,26.9925182 11.4452368,26.6313138 11.4972751,26.2809376 C13.226338,24.0548454 15.1114352,21.8919215 17.1222152,19.7659087 C18.4042619,18.4103909 19.7500562,17.1435467 21.1525051,15.9606134 Z M127.379307,161.842968 C124.62992,171.259347 120.087329,178.646481 117.076756,181.610242 C112.018652,186.589697 108.824892,190.160963 86.1322661,195.326938 C63.4396398,200.492913 35.5895984,198.426523 19.0858701,188.094573 C11.169199,183.138442 6.73695066,174.14131 4.07652933,161.330411 C6.35025444,161.374785 9.40033365,161.75464 13.0003803,161.75464 C24.1259668,161.75464 50.5446816,165.620708 57.9280623,164.278341 C65.311443,162.935975 113.463132,159.083263 124.886309,160.829316 C125.88779,160.982394 126.716787,161.329702 127.379307,161.842968 Z M59.8260149,68.5638091 C61.8889809,65.8371618 79.9243874,65.1915233 83.5501243,66.5196292 C87.1758611,67.8477351 87.5768289,74.0538638 86.5453459,77.063239 C85.5138629,80.0726141 85.2000942,80.225979 83.2543783,80.225979 C81.3086624,80.225979 82.2228953,87.0137949 82.2228953,90.4045643 C82.2228953,93.7953337 79.2867145,93.67164 77.3612262,93.67164 C75.4357379,93.67164 73.853781,92.6963675 71.8817658,90.4045643 C70.567089,88.8766955 71.0046001,85.7205247 73.1942992,80.9360519 C70.195677,82.0824184 68.5929491,82.6556017 68.3861151,82.6556017 C68.0758644,82.6556017 61.6911055,82.6556017 58.9595454,81.0325241 C56.2279852,79.4094466 57.7630489,71.2904564 59.8260149,68.5638091 Z"/>
        <path stroke="#000" d="M17.1222152,19.7659087 C7.08585818,30.3774243 0.180615877,41.9085005 0.180615877,57.6241197 C0.180615877,83.4998005 2.63148745,86.1281245 7.8187052,94.0879802 C8.29216601,96.2778593 8.63446592,98.9206555 8.77103992,102.339387 C8.94801065,106.769332 5.47975712,113.225853 4.83715924,117.514888 C2.83222297,130.896879 1.30511265,143.29472 2.63148745,152.847086 C5.04450851,170.225326 9.52319665,182.107983 19.0858701,188.094573 C35.5895984,198.426523 63.4396398,200.492913 86.1322661,195.326938 C108.824892,190.160963 112.018652,186.589697 117.076756,181.610242 C122.134861,176.630788 131.517518,159.165113 129.454552,140.567602 C127.391586,121.970092 126.459414,115.466404 128.52238,97.8199655 C132.549001,92.638445 136.106579,84.1726437 137.605922,77.1087961 C141.823869,57.2368027 141.823869,43.8348516 132.549001,33.1153203 C119.139722,17.617395 115.152606,5.30117835 91.3889923,2.20159329 C67.6253785,-0.897991766 35.6889094,0.135203255 17.1222152,19.7659087 Z"/>
      </g>
      <g stroke="#000" transform="translate(113.176 118.526)">
        <path fill="#FEFEFE" d="M0.149604935,2.89992638 C0.149604935,7.04360849 0.534880353,11.8568725 0.534880353,15.2947931 C0.534880353,18.7327137 9.43295208,18.7327137 9.43295208,15.6331286 C9.43295208,12.5335435 9.43295208,5.99951144 9.43295208,2.89992638 C9.43295208,-0.199658691 0.149604935,-1.24375575 0.149604935,2.89992638 Z"/>
        <path d="M4.74441895,2.88300628 L4.74441895,17.6995186"/>
      </g>
      <path fill="#F3D4B7" stroke="#000" d="M101.531416,115.776012 C101.084097,118.983867 101.057498,124.389017 110.394066,124.183543 C112.606254,124.134857 115.254977,123.271675 117.060111,123.121622 C122.873564,122.638379 127.891015,122.264202 128.476823,119.187493 C128.931818,116.79782 129.025174,111.701124 125.549838,109.566487 C123.161293,108.099383 117.132693,108.921675 113.120052,109.349523 C103.269011,110.399893 101.978735,112.568156 101.531416,115.776012 Z" transform="rotate(-1 115.043 116.46)"/>
      <path fill="#9B8E7D" stroke="#000" d="M105.906568,108.092318 C105.907433,111.880579 112.132577,112.829068 114.622549,112.829637 C117.11252,112.830207 122.092246,111.884281 123.336367,108.096305 C124.580487,104.30833 120.844881,101.46628 114.619954,101.464856 C108.395026,101.463433 105.905703,104.304059 105.906568,108.092318 Z" transform="scale(-1 1) rotate(8 0 -1533.72)"/>
      <path fill="#DDB27A" stroke="#000" d="M112.722638,0.876378981 C102.759564,0.876378981 93.4762167,12.6784604 85.2243526,19.4738893 C76.9724885,26.2693184 69.7521074,27.3960493 62.5317263,35.1986251 C55.3113452,43.001201 55.3113452,68.0957012 58.4057942,72.8888093 C61.5002433,77.6819175 67.6891414,58.4771799 88.3188017,56.0232525 C108.948462,53.569325 139.892952,54.8524983 150.207782,58.5838735 C160.522612,62.3152487 166.71151,69.2003464 166.71151,65.7577975 C166.71151,62.3152487 171.868926,49.2658829 166.71151,40.3365762 C161.554095,31.4072694 155.365197,26.2693184 144.018884,19.4738893 C132.672571,12.6784604 122.685712,0.876378981 112.722638,0.876378981 Z"/>
      <path fill="#C59B63" fill-rule="nonzero" d="M131.36918,10.3013234 C135.433547,13.4588201 139.624246,16.841893 144.018884,19.4738893 C146.655172,21.0527903 149.013034,22.5422116 151.144225,24.0105001 C154.300039,26.9446657 161.152124,32.373333 161.942833,33.5778353 C162.433321,34.3250047 163.87413,36.1139851 165.250565,37.9516686 C165.74855,38.7170722 166.234443,39.5106038 166.71151,40.3365762 C167.502069,41.7053117 168.050265,43.1708543 168.411824,44.6837641 C168.455218,44.9041205 168.505562,45.1332928 168.562854,45.3712811 C168.668657,45.8980117 168.753226,46.4294969 168.818853,46.963704 C156.662993,44.1833151 149.901226,42.3174908 148.533554,41.3662313 C146.470588,39.9313732 126.872411,37.5349606 126.872411,37.696501 C126.872411,37.8580413 111.043158,37.5349606 115.204052,37.696501 C119.364947,37.8580413 131.8916,35.758767 135.742762,35.758767 C139.593923,35.758767 147.502071,35.6432224 148.533554,33.5778353 C149.565037,31.5124481 145.439105,30.3249415 144.407622,29.4811049 C143.376139,28.6372684 138.218724,24.1125924 137.187241,22.2136929 C136.499585,20.94776 133.715888,16.4705816 128.836149,8.78215768 C129.707995,9.30362491 130.552338,9.81001347 131.36918,10.3013234 Z M109.498101,8.78215768 C106.587094,11.8817427 99.0396146,20.8798568 103.981909,25.6795549 C108.924203,30.4792531 117.589064,31.5124481 122.609001,31.5124481 C127.628939,31.5124481 113.298118,35.6149936 107.274234,33.0471234 C101.250349,30.4792531 96.8555471,26.346473 99.0223695,20.1473029 C103.148302,11.8817427 105.555611,11.8817427 109.498101,8.78215768 Z"/>
      <path stroke="#000" d="M112.722638,0.876378981 C102.759564,0.876378981 93.4762167,12.6784604 85.2243526,19.4738893 C76.9724885,26.2693184 69.7521074,27.3960493 62.5317263,35.1986251 C55.3113452,43.001201 55.3113452,68.0957012 58.4057942,72.8888093 C61.5002433,77.6819175 67.6891414,58.4771799 88.3188017,56.0232525 C108.948462,53.569325 139.892952,54.8524983 150.207782,58.5838735 C160.522612,62.3152487 166.71151,69.2003464 166.71151,65.7577975 C166.71151,62.3152487 171.868926,49.2658829 166.71151,40.3365762 C161.554095,31.4072694 155.365197,26.2693184 144.018884,19.4738893 C132.672571,12.6784604 122.685712,0.876378981 112.722638,0.876378981 Z"/>
      <path fill="#AA6535" stroke="#000" d="M85.2243526,40.1377897 C71.790815,43.1774545 57.7375543,44.8128991 56.9475516,51.4108799 C55.8580528,60.5102052 56.6120215,65.9775875 58.4057942,68.7560293 C61.5002433,73.5491374 67.6891414,54.3443998 88.3188017,51.8904724 C108.948462,49.4365449 139.892952,50.7197182 150.207782,54.4510934 C160.522612,58.1824687 166.71151,69.2003464 166.71151,65.7577975 C166.71151,63.2381636 169.474293,55.5722404 168.933539,48.1420283 C168.735467,45.4204213 157.452422,43.1774545 144.018884,40.1377897 C130.585346,37.0981251 98.6578902,37.0981251 85.2243526,40.1377897 Z"/>
      <path fill="#88491E" stroke="#000" d="M142.963143,44.9790302 C148.120558,43.810632 158.672112,45.303592 164.078276,47.1778641 C167.682385,48.4273787 169.316282,49.191241 168.979965,49.4694506 L168.979965,54.4102292 C156.77115,52.3933626 149.818014,51.0656828 148.120558,50.42719 C145.574374,49.4694506 137.805728,46.1474285 142.963143,44.9790302 Z"/>
      <path fill="#C59B63" stroke="#000" d="M183.146014,88.0666591 L183.132309,88.0522368 C168.392616,72.5543115 164.009914,60.2380949 137.888574,57.1385098 C111.767234,54.0389248 76.6621623,55.0721198 56.2533583,74.7028252 C50.2057255,80.5198881 45.8727973,86.6924072 42.8189719,93.6281091 C40.9089605,93.739734 39.2794372,93.8611636 37.9714026,93.9942981 C19.1851812,95.906398 -9.69634327,81.0868631 4.74441895,73.0890747 C19.1851812,65.0912863 64.5704339,46.3283381 107.89272,45.3102603 C151.215007,44.2921826 199.694709,60.5311527 207.946573,65.6078838 C215.076475,69.994359 205.265037,82.8915129 183.146014,88.0666591 Z"/>
      <path stroke="#000" stroke-linecap="round" stroke-linejoin="round" d="M108.924203,8.94964827 C101.250349,16.4887432 94.8964374,19.803325 99.9163748,28.1434175 C104.936312,36.4835101 120.033793,33.9056515 128.52238,29.1766125 C134.18144,26.0239199 130.835003,18.9372001 118.483069,7.91645326 M135.742762,20.3147935 C138.154755,22.8452176 145.574374,31.6799388 150.514234,33.3716135 C153.648395,34.4449197 156.927316,34.4818015 158.672112,34.0139025"/>
      <path stroke="#000" stroke-linecap="round" stroke-linejoin="round" d="M71.9651662,19.5931052 C74.3771586,22.1235292 81.7967785,30.9582504 86.7366378,32.6499252 C89.8707994,33.7232314 93.1497203,33.7601133 94.8945165,33.2922142" transform="matrix(-1 0 0 1 166.86 0)"/>
      <g transform="translate(127.904 61.992)">
        <path fill="#FFF" stroke="#000" d="M0.356483178,33.3565321 C0.356483178,52.9278064 22.7124755,58.2352705 30.567292,58.2352705 C38.4221084,58.2352705 53.0743414,54.9181054 57.0017496,35.3468313 C60.9291578,15.775557 49.1851054,0.51659751 29.5480644,0.51659751 C9.91102329,0.51659751 0.356483178,13.785258 0.356483178,33.3565321 Z"/>
        <path fill="#F0F0F0" d="M44.4877285,4.11961238 C54.6908597,9.75740506 59.7868859,21.4677886 57.0017496,35.3468313 C53.0743414,54.9181054 38.4221084,58.2352705 30.567292,58.2352705 C25.0097707,58.2352705 12.1929722,55.5783581 5.17130545,47.0922926 C11.7710492,50.920658 19.3946451,52.2643734 23.3469109,52.2643734 C31.2017273,52.2643734 45.8539603,48.9472082 49.7813685,29.375934 C51.7981141,19.3259776 49.6824857,10.4131264 44.4877285,4.11961238 Z"/>
        <path stroke="#000" d="M0.356483178,33.3565321 C0.356483178,52.9278064 22.7124755,58.2352705 30.567292,58.2352705 C38.4221084,58.2352705 53.0743414,54.9181054 57.0017496,35.3468313 C60.9291578,15.775557 49.1851054,0.51659751 29.5480644,0.51659751 C9.91102329,0.51659751 0.356483178,13.785258 0.356483178,33.3565321 Z"/>
        <path fill="#000" d="M31.0393332,27.4241748 C31.0418778,31.5512398 36.2070729,32.5861867 38.2728965,32.587459 C40.3387201,32.5887312 44.4697311,31.5595095 45.5000984,27.4330807 C46.5304656,23.3066519 43.4298219,20.2094448 38.2652629,20.2062641 C33.1007039,20.2030834 31.0367887,23.2971099 31.0393332,27.4241748 Z" transform="rotate(66 38.368 26.397)"/>
        <path fill="#FFF" d="M39.0290566,28.0137795 C37.9496679,27.2014519 37.7323403,26.0793453 39.212875,24.797193 C40.6934097,23.5150407 42.3912721,23.3549951 43.1745539,24.4237531 C43.9578356,25.4925112 43.043255,26.721315 42.4510411,27.2341758 C41.8588272,27.7470367 40.1084453,28.8261071 39.0290566,28.0137795 Z" transform="rotate(-58 40.82 26.012)"/>
      </g>
      <g transform="translate(42.29 65.091)">
        <path fill="#FFF" stroke="#000" d="M0.467390742,34.4422759 C0.467390742,54.7617781 22.8233831,60.2721515 30.6781995,60.2721515 C38.5330159,60.2721515 53.185249,56.8281681 57.1126572,36.508666 C61.0400655,16.1891639 49.2960131,0.346840249 29.658972,0.346840249 C10.0219308,0.346840249 0.467390742,14.1227738 0.467390742,34.4422759 Z"/>
        <path fill="#F0F0F0" d="M44.5986361,4.08760171 C54.8017672,9.94093241 59.8977934,22.0990148 57.1126572,36.508666 C53.185249,56.8281681 38.5330159,60.2721515 30.6781995,60.2721515 C25.1206784,60.2721515 12.3038797,57.5136628 5.282213,48.7031672 C11.8819582,52.6778948 19.505553,54.0729813 23.4578184,54.0729813 C31.3126348,54.0729813 45.9648679,50.628998 49.8922761,30.3094959 C51.9090216,19.8753204 49.7933932,10.6217226 44.5986361,4.08760171 Z"/>
        <path stroke="#000" d="M0.467390742,34.4422759 C0.467390742,54.7617781 22.8233831,60.2721515 30.6781995,60.2721515 C38.5330159,60.2721515 53.185249,56.8281681 57.1126572,36.508666 C61.0400655,16.1891639 49.2960131,0.346840249 29.658972,0.346840249 C10.0219308,0.346840249 0.467390742,14.1227738 0.467390742,34.4422759 Z"/>
        <path fill="#000" d="M15.5908067,29.4939189 C12.3546848,27.0516118 11.4364596,21.8439645 15.2086252,18.5701474 C18.9807909,15.2963303 22.6396987,16.1969653 25.1213874,19.2940358 C27.6030762,22.3911064 26.5228686,26.4329987 24.9169909,27.9634588 C23.3111133,29.4939189 18.8269286,31.936226 15.5908067,29.4939189 Z"/>
        <path fill="#FFF" d="M15.7259476,24.3031053 C14.6473058,23.4902548 14.4301516,22.3673965 15.9097195,21.0843455 C17.3892873,19.8012945 19.0860094,19.6411019 19.8687377,20.7105626 C20.6514659,21.7800234 19.737472,23.0096768 19.1456448,23.5228971 C18.5538177,24.0361175 16.8045894,25.1159559 15.7259476,24.3031053 Z" transform="rotate(-34 17.515 22.3)"/>
      </g>
      <path fill="#F34D4D" stroke="#000" stroke-linecap="round" stroke-linejoin="round" d="M99.6408564,159.280261 C86.4874892,155.148594 70.1789273,148.310028 67.6648829,147.437971 C65.6019169,146.722381 60.1006741,143.6094 51.1611547,138.099025 C47.0352226,151.482702 44.9722566,158.868432 44.9722566,160.256216 C44.9722566,162.065861 43.4132334,180.900668 44.3610625,195.200311 C44.5035429,197.349874 44.0314682,199.367963 43.9407736,201.268321 C43.7091123,206.122407 41.7818411,208.492641 43.7091123,211.122078 C48.6786139,217.902124 62.3742982,220.738579 69.727849,222.821017 C76.5314511,224.747718 89.2530749,226.469709 107.89272,227.986992 L109.955686,204.223507 L112.018652,166.344398 C105.791222,162.270878 101.66529,159.916166 99.6408564,159.280261 Z"/>
      <g transform="translate(42.29 137.415)">
        <path fill="#DC3D4F" fill-rule="nonzero" d="M60.8011996,23.4605519 C62.8122621,24.5526421 65.4406234,26.1496189 68.6862835,28.2514821 C68.9763694,29.9052213 69.2485131,31.5091541 69.5027146,33.0632807 L67.6648829,66.8085695 L65.7270461,89.1306801 C65.4378245,90.1178003 65.1899524,90.6114295 64.98343,90.4045643 C63.951947,89.3713693 64.98343,82.1390041 63.951947,80.0726141 C62.920464,78.0062241 56.7315659,78.159589 53.6371168,78.159589 C50.5426678,78.159589 47.4482187,77.1263939 46.4167357,79.0394191 C45.3852527,80.9524442 44.0169958,83.1142997 40.2278376,83.2954961 C36.4386794,83.4766925 33.0074565,83.2954961 29.9130075,82.1390041 C26.8185584,80.9825122 19.5981773,77.1263939 19.5981773,75.939834 C19.5981773,74.7532741 18.5666943,70.7790279 17.5352113,69.7406639 C16.5037283,68.7022999 9.28334714,58.7481651 12.3777962,59.896541 C15.4722452,61.0449168 26.8185584,58.7481651 25.7870754,56.3091286 C24.7555924,53.8700921 24.7555924,49.4414953 24.7555924,49.2301284 C24.7555924,49.0187615 28.8815244,32.5456432 29.9130075,31.5124481 C30.9444905,30.4792531 52.6056338,35.9222985 53.6371168,36.9329157 C54.6685998,37.9435329 53.6371168,43.3654206 53.6371168,46.3714368 C53.6371168,49.3774528 52.6056338,58.7481651 52.6056338,62.5082988 C52.6056338,66.2684324 61.8889809,65.9726156 63.951947,65.9726156 C66.014913,65.9726156 64.1498224,42.2610339 62.920464,38.7448133 C61.6911055,35.2285926 58.7945319,33.5788382 56.7315659,32.5456432 C54.6685998,31.5124481 38.1648716,25.2187225 33.0074565,23.246888 C29.5691798,21.9323316 29.5691798,20.2294434 33.0074565,18.1382231 L60.8011996,23.4605519 Z M1.21799594,67.2091841 C1.41186532,66.2284162 1.58921971,65.1263051 1.64996991,63.8533838 C1.74066451,61.953026 2.21273918,59.9349364 2.07025879,57.7853728 C1.68973097,52.0444512 1.71325917,45.5725488 1.87774187,39.7648277 C4.91962151,36.4295345 7.60719913,34.1367786 8.25186413,33.5788382 C9.80736566,32.2325929 13.4179512,27.3543151 15.2984691,27.3543151 C17.1789872,27.3543151 17.445772,32.3177373 15.1160211,34.6120332 C12.7862703,36.9063291 8.25186413,43.3654206 7.22038111,45.695274 C6.18889809,48.0251274 5.61241773,53.6940615 5.61241773,57.3262839 C5.61241773,60.4677226 3.72893067,65.3488365 1.21799594,67.2091841 Z"/>
        <path stroke="#000" stroke-linecap="round" stroke-linejoin="round" d="M57.3500528,21.8653232 C44.1966855,17.7336556 27.8881237,10.8950904 25.3740793,10.0230331 C23.3111133,9.30744321 17.8098704,6.19446156 8.87035101,0.684088109 C4.74441894,14.067764 2.68145291,21.453494 2.68145291,22.8412782 C2.68145291,24.6509234 1.12242982,43.4857304 2.07025879,57.7853728 C2.21273918,59.9349364 1.74066451,61.953026 1.64996991,63.8533838 C1.41830862,68.7074689 -0.508962448,71.0777033 1.41830862,73.7071399 C6.38781018,80.4871871 20.0834946,83.3236406 27.4370453,85.4060798 C34.2406475,87.3327801 46.9622713,89.0547718 65.6019169,90.5720549 L67.6648829,66.8085695 L69.727849,28.9294606 C63.5004189,24.8559404 59.3744868,22.501228 57.3500528,21.8653232 Z"/>
      </g>
      <path fill="#F34D4D" stroke="#000" stroke-linecap="round" stroke-linejoin="round" d="M167.590914,167.057747 C158.307567,166.611626 133.551975,152.213301 130.457526,151.139917 C128.39456,150.424327 122.893317,147.311346 113.953798,141.800972 C113.266143,155.184647 112.922315,162.570378 112.922315,163.958162 C112.922315,165.718919 109.643089,181.481435 110.504599,195.551285 C110.66162,198.115688 110.005959,200.686583 109.37028,202.980778 C107.925802,208.193966 107.925802,210.255187 111.504235,212.8771 C117.591525,217.337248 128.242856,220.826915 135.614941,223.423378 C142.418544,225.819622 155.483995,227.886012 174.811295,229.622548 L176.874262,207.925453 L177.905745,170.046344 C177.21809,168.35136 173.779812,167.355161 167.590914,167.057747 Z" transform="matrix(-1 0 0 1 286.372 0)"/>
      <g transform="translate(108.306 141.548)">
        <path fill="#DC3D4F" d="M13.7574458,24.9676114 C24.5807349,22.2670884 44.8300905,10.5561726 47.6091199,9.59219881 C49.6720859,8.87660896 55.1733287,5.7636273 64.1128481,0.253253858 C64.8005035,13.6369297 65.1443311,21.0226597 65.1443311,22.410444 C65.1443311,24.1712009 68.4235571,39.9337169 67.5620469,54.0035678 C67.4050262,56.5679693 68.0606865,59.138865 68.696366,61.4330596 C70.1408451,66.6462478 70.1408451,68.7074689 66.5624117,71.3293816 C66.0371294,71.7142553 65.477862,72.0919025 64.8896493,72.4623729 C64.7509086,69.3291322 64.1071993,66.6562159 61.8889809,65.6130528 C57.9462983,63.7589248 52.5880085,67.8608407 50.5426678,68.1912044 C47.3463824,68.7074689 45.2879026,67.6856646 41.7499962,68.4491463 C32.4941428,70.446563 23.0866229,71.5225996 16.5037283,71.9916972 C9.92083359,72.4607948 2.06296603,74.0580872 2.06296603,74.0580872 C2.06296603,74.0580872 4.12593206,68.7074689 5.15741508,68.7074689 C5.57084661,68.7074689 14.1040008,66.4435636 24.1814829,63.5735055 C25.3690298,63.2352931 37.9166902,55.2598939 34.0389395,55.2598939 C31.9884308,55.2598939 26.9169219,54.4810447 24.7694827,52.1603088 C20.0239683,47.0318347 19.0618026,36.1420918 20.5304329,35.7054561 C23.9322581,34.694066 27.2718204,33.6751269 30.3182601,32.7068419 C30.9727331,32.4988233 42.757568,25.7660673 46.4167357,31.0958126 C47.5937599,32.8102023 49.6478185,35.3667763 50.2519064,38.2039803 C50.6289083,39.9746361 50.842917,42.8877871 50.8297526,44.7405467 C50.7832955,51.2789144 47.7415599,56.4453903 48.1543775,56.3074476 C53.8483222,54.4048205 57.7630489,52.8483233 57.7630489,52.1763485 C57.7630489,50.770507 58.7945319,49.9132128 58.7945319,42.2386567 C58.7945319,34.5641006 53.6371168,28.4128631 48.4797017,25.7911684 C43.3222867,23.1694737 25.7870754,26.0889306 15.4722452,26.0889306 C14.2736577,26.0889306 13.7435968,25.6878362 13.7574458,24.9676114 Z"/>
        <path stroke="#000" stroke-linecap="round" stroke-linejoin="round" d="M59.2846325,25.510029 C50.0012853,25.0639084 25.245693,10.6655837 22.1512439,9.59219881 C20.0882779,8.87660896 14.5870351,5.7636273 5.64751558,0.253253858 C4.95986025,13.6369297 4.61603257,21.0226597 4.61603257,22.410444 C4.61603257,24.1712009 1.3368067,39.9337169 2.19831686,54.0035678 C2.35533757,56.5679693 1.69967722,59.138865 1.06399783,61.4330596 C-0.380481318,66.6462478 -0.380481318,68.7074689 3.19795201,71.3293816 C9.28524232,75.7895303 19.9365741,79.2791965 27.308659,81.8756605 C34.1122611,84.2719036 47.1777127,86.3382937 66.5050136,88.0748306 L68.5679796,66.3777352 L69.5994626,28.4986263 C68.9118073,26.8036418 65.4735306,25.8074427 59.2846325,25.510029 Z" transform="matrix(-1 0 0 1 69.76 0)"/>
      </g>
      <g stroke="#000" transform="translate(126.872 168.41)">
        <path fill="#F34D4D" d="M1.3879662,9.62662299 C1.74444937,12.1808403 3.28560364,17.5322358 3.28560364,20.1312632 C3.28560364,22.7302905 6.51226256,24.3423217 10.3148302,24.3423217 C12.307565,24.3423217 17.727437,22.7539854 22.3475147,21.847983 C25.9300824,21.1454376 28.7796881,18.4456447 28.7796881,15.5139249 C28.7796881,12.7750174 28.2691503,8.67453242 27.6737692,7.56023295 C26.8185584,5.95964284 1.03148302,7.07240568 1.3879662,9.62662299 Z"/>
        <path fill="#DC3D4F" d="M19.3678516,22.4885463 C20.3702404,22.2589392 21.3765406,22.0383922 22.3475147,21.847983 C25.9300824,21.1454376 28.7796881,18.4456447 28.7796881,15.5139249 C28.7796881,12.7750174 28.2691503,8.67453242 27.6737692,7.56023295 C27.3461934,6.94715073 23.3607167,6.73216053 18.5876419,6.84378504 C10.8995232,7.02358162 15.6006856,23.3514527 19.3678516,22.4885463 Z"/>
        <path fill="#F34D4D" d="M12.7342794,13.3175823 C13.0907625,16.2875359 13.6004338,16.8474888 13.6004338,20.7265559 C13.6004338,24.6056232 15.4722452,24.1313776 18.5666943,23.2203008 C21.6611433,22.3092238 21.6611433,20.6043623 21.6611433,19.4015921 C21.6611433,18.1988219 21.3085989,12.7759666 20.4533881,10.914857 C19.5981773,9.05374741 12.3777962,10.3476287 12.7342794,13.3175823 Z"/>
        <path fill="#F34D4D" stroke-linejoin="round" d="M0.618486886,6.13144001 C6.11972964,3.21270656 14.7154214,1.4089415 26.4055623,0.720144814 C28.4685283,6.32597135 29.5000114,9.75793585 29.5000114,11.0160383 C29.5000114,12.903192 26.4055623,9.12888462 22.2796302,11.0160383 C19.5290088,12.2741408 18.1536982,13.5100564 18.1536982,14.7237853 C16.0907321,13.5100564 14.0277661,12.903192 11.9648001,12.903192 C9.90183403,12.903192 6.80738499,13.8463341 2.68145292,15.7326183 C1.30614223,10.7284605 0.618486886,7.52806774 0.618486886,6.13144001 Z"/>
        <path fill="#FCDE32" d="M13.4217365,8.7771107 C13.4217365,6.50420781 15.1701671,5.8395731 16.9185976,7.30834191 C18.6670281,8.7771107 18.6670281,10.9792489 16.9185976,11.3290123 C15.1701671,11.6787758 13.4217365,11.0500136 13.4217365,8.7771107 Z"/>
      </g>
      <g stroke="#000" transform="matrix(-1 0 0 1 94.896 167.378)">
        <path fill="#F34D4D" d="M2.06497399,10.1245906 C2.43560979,12.678808 3.6267522,17.8283856 3.6267522,21.1644582 C3.6267522,24.5005307 7.71774295,25.4537952 10.9350437,24.3423217 C13.3974902,23.4916259 23.7241094,21.1644582 27.9562302,19.879261 C29.3027558,19.4703524 30.1306266,17.8952799 29.9552535,16.8433581 C29.500303,14.1144776 28.5934352,9.7486905 27.9516612,8.59342797 C27.062498,6.99283786 1.69433819,7.57037328 2.06497399,10.1245906 Z"/>
        <path fill="#DC3D4F" d="M2.06497399,10.1245906 C2.43560979,12.678808 3.6267522,17.8283856 3.6267522,21.1644582 C3.6267522,24.5005307 7.71774295,25.4537952 10.9350437,24.3423217 C11.9876422,23.978683 14.4772014,23.3452596 17.313457,22.6387587 C21.1123311,21.692473 19.4299051,7.48783517 12.4426949,7.90634013 C6.83613707,8.24214973 1.89997245,8.98749109 2.06497399,10.1245906 Z"/>
        <path fill="#F34D4D" d="M13.0783295,12.1520785 C13.4348127,15.1593236 13.944484,15.7263074 13.944484,19.6540811 C13.944484,23.581855 15.8162955,23.1016546 18.9107445,22.179138 C22.0051936,21.2566214 22.0051936,19.5303532 22.0051936,18.3124807 C22.0051936,17.0946082 21.6526492,11.6036621 20.7974384,9.71918398 C19.9422275,7.8347058 12.7218464,9.1448334 13.0783295,12.1520785 Z"/>
        <path fill="#F34D4D" stroke-linejoin="round" d="M0.618486886,5.09824499 C6.11972964,2.17951154 14.3715938,0.720144814 25.3740793,0.720144814 C28.1247006,5.63717467 29.5000114,8.72474083 29.5000114,9.98284329 C29.5000114,11.869997 26.4055623,8.0956896 22.2796302,9.98284329 C19.5290088,11.2409458 18.1536982,12.4768614 18.1536982,13.6905903 C16.0907321,12.4768614 14.0277661,11.869997 11.9648001,11.869997 C9.90183403,11.869997 6.80738499,12.8131391 2.68145292,14.6994233 C1.30614223,9.69526551 0.618486886,6.49487272 0.618486886,5.09824499 Z"/>
        <path fill="#FCDE32" d="M12.3902535,7.74391568 C12.3902535,5.47101279 14.1386841,4.80637808 15.8871146,6.27514688 C17.6355451,7.74391568 17.6355451,9.94605386 15.8871146,10.2958173 C14.1386841,10.6455808 12.3902535,10.0168186 12.3902535,7.74391568 Z"/>
      </g>
      <path fill="#F3D4B7" stroke="#000" stroke-linecap="round" stroke-linejoin="round" d="M37.2325345,163.764732 C35.1709453,168.031607 28.9837789,174.228006 26.9224667,179.257605 C24.8611546,184.287205 28.988608,187.523222 34.1449552,183.392665 C39.3013025,179.262108 44.7036096,172.032315 45.7344288,169.966474" transform="rotate(13 36.058 174.521)"/>
      <path fill="#F3D4B7" stroke="#000" stroke-linecap="round" stroke-linejoin="round" d="M187.968515,165.539797 C186.409292,169.049396 179.667889,177.245186 178.108844,181.382112 C176.549798,185.519038 179.670988,188.180253 183.570572,184.782511 C187.470155,181.384769 193.618062,172.339098 194.397689,170.639895" transform="scale(-1 1) rotate(10 0 -1950.606)"/>
      <g transform="translate(43.322 144.647)">
        <path fill="#AA6535" stroke="#000" stroke-linecap="round" stroke-linejoin="round" d="M132.648313,39.9454989 C123.024059,45.8548392 97.5778904,53.8830517 80.0426791,55.4434242 C69.6885673,56.3647859 55.3784356,56.0581492 43.4830094,54.3609103 C35.2329305,53.1837893 28.1443548,49.7683611 24.3425963,48.8825207 C15.0592491,46.7194257 5.77590196,42.7800554 0.618486886,39.9454989 C0.618486886,42.345028 -0.412996129,44.2328288 0.618486886,48.9792255 C2.38701752,52.1782371 13.110122,57.7871671 25.4158863,60.7909812 C41.8191231,64.7949805 61.0344516,67.8417645 65.6019169,67.8417645 C73.5959103,67.8417645 98.6093734,63.3262063 108.924203,60.6093993 C119.239033,57.8925923 128.453381,53.7723768 132.648313,50.2774491 C133.679796,47.0914248 132.648313,43.2755798 132.648313,39.9454989 Z"/>
        <g transform="translate(0 39.261)">
          <path fill="#88491E" fill-rule="nonzero" d="M115.87181,19.2574706 C116.594801,18.7883387 117.511047,18.2343267 118.620547,17.5954347 L118.620547,10.8485477 C119.02642,10.6611125 119.494439,15.6253624 119.979489,15.407477 C121.763528,14.6060822 123.777962,13.5860715 123.777962,12.2543892 L123.777962,4.99637876 C127.379975,3.51649944 130.43321,2.04417239 132.648313,0.684088109 C132.648313,4.01416893 133.679796,7.83001406 132.648313,11.0160383 C129.425895,13.7007356 123.241595,16.7544057 115.87181,19.2574706 Z M113.466576,20.041226 C111.985829,20.5036948 110.467332,20.9415465 108.924203,21.3479886 C98.6093734,24.0647955 73.5959103,28.5803537 65.6019169,28.5803537 C61.0344516,28.5803537 41.8191231,25.5335698 25.4158863,21.5295704 C13.110122,18.5257563 2.38701752,12.9168263 0.618486886,9.71781473 C-0.412996129,4.97141796 0.618486886,3.08361729 0.618486886,0.684088109 C1.89084917,1.38338857 3.41433039,2.14993195 5.12697815,2.9404576 C4.80469423,4.64983959 4.59380665,6.59561733 4.45988523,8.20563049 C4.41087213,8.79486959 5.30126891,10.6933284 5.89608311,11.1307985 C9.39233199,13.7021973 15.4123528,17.5620955 21.6611433,18.720939 C24.1673676,19.1857203 28.1066115,19.9892708 32.523641,20.9051028 C32.1610406,17.8154832 32.5121691,15.5629608 34.0840938,12.8567114 C36.9254799,13.7613101 40.1069963,14.6178101 43.4830094,15.0994995 C46.0489687,15.4656105 48.7272859,15.7670158 51.4540174,16.0053474 C51.2535296,17.737997 50.7686307,19.7609967 49.7830793,22.4931417 C49.5111848,23.246888 50.4747442,24.4220938 51.0788589,24.5490498 C55.4587584,25.4694952 56.8015462,26.0306515 57.9280623,26.1393799 C58.9595454,26.1393799 59.9166244,19.9261937 60.6596225,18.720939 C61.0904411,18.0220859 62.8153567,17.2546457 64.7533602,16.6731049 C67.1683691,16.7079301 69.5401582,16.694989 71.8238043,16.6354284 C72.7104148,17.4709028 73.479312,18.2793339 72.2038111,18.720939 C70.61224,19.2719741 66.8854949,18.3720748 66.014913,19.2719741 C66.4051305,19.9199825 66.6813841,21.3479886 66.014913,22.2136929 C65.8170375,23.246888 66.4562614,23.7857298 67.046396,24.285252 C67.6365307,24.7847743 67.2139054,25.5932491 67.046396,26.346473 C68.8076368,26.2117002 70.1507501,26.5244282 72.2038111,26.346473 C72.5831482,21.9003833 72.5781701,14.768136 73.5666984,17.0477178 C74.4395323,19.0605046 75.2982601,21.2235895 75.2982601,23.246888 C75.2982601,25.4338129 78.9119747,25.3505715 79.2867145,25.313278 C84.475308,24.7969179 111.609489,19.2035454 112.329812,18.4456447 C112.795748,17.9554024 113.059343,19.2847176 113.466576,20.041226 Z"/>
          <path stroke="#000" stroke-linecap="round" stroke-linejoin="round" d="M132.648313,0.684088109 C123.024059,6.59342844 97.5778904,14.6216409 80.0426791,16.1820134 C69.6885673,17.1033751 55.3784356,16.7967384 43.4830094,15.0994995 C35.2329305,13.9223785 28.1443548,10.5069503 24.3425963,9.62110983 C15.0592491,7.45801489 5.77590196,3.5186446 0.618486886,0.684088109 C0.618486886,3.08361729 -0.412996129,4.97141796 0.618486886,9.71781473 C2.38701752,12.9168263 13.110122,18.5257563 25.4158863,21.5295704 C41.8191231,25.5335698 61.0344516,28.5803537 65.6019169,28.5803537 C73.5959103,28.5803537 98.6093734,24.0647955 108.924203,21.3479886 C119.239033,18.6311815 128.453381,14.510966 132.648313,11.0160383 C133.679796,7.83001406 132.648313,4.01416893 132.648313,0.684088109 Z"/>
        </g>
        <path fill="#AA6535" stroke="#000" d="M109.3372,49.1390022 C109.3372,48.1058072 109.397652,46.4180738 111.223894,46.1976262 C113.050135,45.9771784 114.670887,44.9439834 116.557581,44.9439834 C116.557581,44.9439834 118.620547,44.9439834 118.620547,49.1390022 C118.620547,53.334021 118.620547,57.8403511 118.620547,58.7402505 C118.620547,59.6401498 116.041839,61.2436676 113.978873,61.4751037 C111.915907,61.7065398 109.3372,61.2436676 109.3372,60.4419087 C111.136298,59.8449227 111.136298,59.8449227 112.329812,59.4087137 C113.472308,58.9911514 112.431649,53.8125516 112.431649,52.6641758 C112.431649,51.5158 112.079104,48.5485301 111.223894,48.5485301 C110.368683,48.5485301 110.368683,49.1390022 109.3372,49.1390022 Z"/>
        <g fill="#FCDE32" fill-rule="nonzero" stroke="#000" transform="translate(59.826 53.726)">
          <path d="M4.74441895,0.491120778 C8.87035102,0.491120778 10.9333171,0.491120778 11.9648001,0.491120778 C12.9962831,0.491120778 14.0277661,1.76429728 14.0277661,5.04584737 C14.0277661,8.32739746 14.0277661,11.539801 14.0277661,13.3619702 C14.0277661,15.1841395 14.0277661,15.8282315 10.9333171,15.8282315 C7.83886799,15.8282315 4.74441894,15.8282315 3.71293593,15.8282315 C2.68145291,15.8282315 0.618486886,15.937676 0.618486886,13.3619702 C0.618486886,10.7862644 0.618486886,6.6619702 0.618486886,5.04584737 C0.618486886,3.42972453 0.618486886,0.491120778 4.74441895,0.491120778 Z M4.72174469,2.70966138 C1.64996991,2.70966138 2.52154283,4.83471081 2.52154283,6.00340901 C2.52154283,7.17210721 2.52154283,10.1545879 2.52154283,12.0172079 C2.52154283,13.8798279 3.98834407,13.8006831 4.72174469,13.8006831 C5.45514532,13.8006831 7.65534717,13.8006831 9.85554904,13.8006831 C12.0557509,13.8006831 12.0557509,13.3349085 12.0557509,12.0172079 C12.0557509,10.6995074 12.0557509,8.37645986 12.0557509,6.00340901 C12.0557509,3.63035816 11.6667177,2.70966138 10.9333171,2.70966138 C10.1999164,2.70966138 7.79351948,2.70966138 4.72174469,2.70966138 Z"/>
          <path d="M3.19719443,4.81686819 C4.74441894,4.81686819 5.77590197,4.64398979 5.77590197,5.76362402 C5.77590197,6.88325823 4.74441895,6.88325823 4.74441895,6.88325823 C4.74441894,6.88325823 1.6499699,6.88325823 1.6499699,6.88325823 C1.6499699,6.88325823 0.618486886,6.88325823 0.618486886,5.85006321 C0.618486886,4.81686819 1.64996991,4.81686819 3.19719443,4.81686819 Z M3.41231504,9.60825966 C4.95953956,9.60825966 5.99102258,9.43538125 5.99102258,10.5550155 C5.99102258,11.6746496 4.95953956,11.6746496 4.95953956,11.6746496 C4.95953956,11.6746496 1.86509052,11.6746496 1.86509052,11.6746496 C1.86509052,11.6746496 0.833607504,11.6746496 0.833607504,10.6414546 C0.833607504,9.60825966 1.86509052,9.60825966 3.41231504,9.60825966 Z"/>
        </g>
        <g transform="translate(119.652)">
          <path fill="#F34D4D" stroke="#000" stroke-linecap="round" stroke-linejoin="round" d="M22.7781106,2.51102662 C20.267039,6.81814921 14.4062578,15.6017145 11.8856871,18.7513612 C7.76100938,23.9054627 5.01123901,27.3935587 3.63637594,29.2156494 C11.2033638,37.6888805 15.6746845,42.4091412 17.050338,43.3764315 C19.1138183,44.8273669 27.3628282,33.3001972 27.3628045,33.2165693 C27.3627887,33.1608173 29.0812848,30.5913486 32.5182929,25.5081628" transform="scale(-1 1) rotate(10 0 -183.618)"/>
          <path fill="#DC3D4F" d="M10.5108492,4.3630235 C13.9699741,8.34221015 20.5885336,15.2365594 23.4360136,17.7408386 C25.0889988,19.1945929 26.5592501,20.4924537 27.8467675,21.6344208 C26.5117373,23.3057453 24.824466,25.1270636 23.7241094,25.5116208 C21.6611433,26.2325945 20.6296603,27.8962656 16.9950881,24.0225405 C13.9909303,21.155145 13.9909303,21.155145 12.3777962,19.2773563 C9.28334714,22.0489582 10.3148302,21.698608 10.3148302,24.0225405 C10.3148302,26.346473 15.4722452,33.1174015 18.5666943,35.6452282 C21.6611433,38.1730549 23.7241094,38.7900175 28.8815244,33.5309056 C29.01607,33.3937069 29.1435955,33.2787339 29.2642477,33.1848122 C25.7224193,38.7668126 23.5096447,42.0014189 22.6259238,42.888631 C20.8457448,44.6758431 10.7203838,34.7562224 10.7058853,34.6738609 C10.6962197,34.6189532 8.55764776,32.3869342 4.29016965,27.9778037 L9.6613969,4.62796969 C9.94386564,4.53749215 10.2271068,4.44916593 10.5108492,4.3630235 Z"/>
          <path stroke="#000" stroke-linecap="round" stroke-linejoin="round" d="M22.7781106,2.51102662 C20.267039,6.81814921 14.4062578,15.6017145 11.8856871,18.7513612 C7.76100938,23.9054627 5.01123901,27.3935587 3.63637594,29.2156494 C11.2033638,37.6888805 15.6746845,42.4091412 17.050338,43.3764315 C19.1138183,44.8273669 27.3628282,33.3001972 27.3628045,33.2165693 C27.3627887,33.1608173 29.0812848,30.5913486 32.5182929,25.5081628" transform="scale(-1 1) rotate(10 0 -183.618)"/>
          <path fill="#1D487A" stroke="#000" stroke-linecap="round" stroke-linejoin="round" d="M10.9340457,7.96996633 C15.3489938,9.75873713 18.0910845,9.46688468 22.5355264,11.0862358 C31.2607614,14.2653118 28.1145253,22.5853286 22.0619903,21.0443582 C11.0521727,18.2412678 7.46577363,17.4131901 7.39676311,16.5884513 C7.11870968,13.2654584 9.01274486,10.6213694 10.9340457,7.96996633 Z" transform="scale(-1 1) rotate(-65 0 42.3)"/>
          <path fill="#E8DB54" stroke="#000" d="M9.25368545,5.50069036 C9.25280139,3.22800789 11.0011432,2.56411882 12.7503149,4.03342639 C14.4994866,5.50273394 14.5003431,7.70465856 12.7518788,8.05370691 C11.0034144,8.40275524 9.25456952,7.77337283 9.25368545,5.50069036 Z" transform="rotate(14 11.658 5.698)"/>
        </g>
        <g stroke="#000" transform="translate(17.535 3.1)">
          <path fill="#1D487A" stroke-linecap="round" stroke-linejoin="round" d="M54.3390449,9.80946042 C65.2181639,9.80946042 81.9039309,5.73974652 95.7500823,1.25547066 C99.7061255,1.25547066 102.673158,2.49348552 104.65118,4.7065515 C104.65118,6.94868943 102.116819,10.5778747 99.7061255,12.7502215 C82.7990558,18.1817405 71.1097565,21.0385412 53.3075619,22.0998144 C53.3075619,17.1485455 54.3390449,14.5910044 54.3390449,9.80946042 Z"/>
          <path fill="#1D487A" stroke-linecap="round" stroke-linejoin="round" d="M1.73394972,9.80946042 C12.6130686,9.80946042 30.3303187,4.7065515 44.1764701,0.222275633 C48.1325133,0.222275633 51.0995457,1.4602905 53.0775673,3.67335648 C53.0775673,5.91549441 51.0995457,7.74307038 48.1325133,11.7170264 C31.2254436,17.1485455 18.5046612,21.0385412 0.7024667,22.0998144 C0.7024667,17.1485455 1.73394972,14.5910044 1.73394972,9.80946042 Z" transform="matrix(-1 0 0 1 53.78 0)"/>
          <path fill="#FCDE32" d="M28.4685283,14.5910044 C28.4685283,11.533373 29.2707929,11.5891387 30.875322,9.9828433 C32.4798512,8.37654792 35.6889094,10.5844983 35.6889094,14.5910044 C35.6889094,18.5975104 33.2821157,18.5975104 32.0787189,18.5975104 C30.875322,18.5975104 28.4685283,17.6486356 28.4685283,14.5910044 Z"/>
          <path fill="#FCDE32" d="M64.9971575,14.3478838 C64.9968049,11.2902771 65.7990823,11.346135 67.4034392,9.74003787 C69.0077961,8.13394075 72.2171349,10.3422439 72.2175969,14.3487177 C72.2180589,18.3551914 69.8112457,18.3549134 68.6078392,18.3547744 C67.4044325,18.3546355 64.99751,17.4054904 64.9971575,14.3478838 Z" transform="scale(-1 1) rotate(4 0 -1950.875)"/>
        </g>
        <path fill="#AA6535" stroke="#000" d="M33.3101314,49.1390022 C34.3823853,48.8430365 45.9680314,42.4609252 57.8151589,37.9735471 C69.1380981,33.6847177 103.148302,18.6548206 112.431649,13.9481328 C117.808435,11.2220841 120.755989,9.8153527 128.806243,3.67310169 C129.130304,3.42584668 130.952639,1.78660455 132.309862,0.695287334 C133.061946,0.0905506124 134.511507,1.12425713 134.799049,1.33840533 C136.516182,2.61724371 136.726499,3.4221375 136.726499,4.52082839 C136.726499,6.71576763 127.774759,11.8817427 118.898127,17.0223649 C110.021495,22.1629869 68.6199932,40.4226788 61.1631968,43.0895391 C49.4696525,47.2716364 34.9647178,55.2759336 33.3101314,55.2759336 C30.6004402,55.2759336 31.2130665,49.7178385 33.3101314,49.1390022 Z"/>
        <path fill="#AA6535" stroke="#000" d="M41.2593206,45.4605809 C42.2908036,48.560499 44.3537697,51.5158 44.3537697,51.5158 C44.3537697,51.5158 45.3243822,53.2095436 47.4482187,51.5158 C49.5720553,49.8220564 49.5111848,50.1099585 48.4797017,48.1058072 C47.7109943,46.6122237 46.422656,44.9751995 45.7357507,43.8051818 C44.3537697,41.4512294 43.3222867,42.5383637 42.2736649,43.0240739 C41.4740535,43.3944451 40.7716568,43.9950037 41.2593206,45.4605809 Z"/>
        <path fill="#FCDE32" stroke="#000" stroke-linejoin="round" d="M100.053853,17.0477178 C101.085336,16.6829861 102.116819,16.002777 104.179785,19.1141079 C106.242751,22.2254387 108.305717,23.246888 108.305717,24.280083 C108.305717,25.313278 103.148302,27.8886529 102.116819,28.6673555 C101.085336,29.4460581 99.0223695,29.755296 97.9908865,27.379668 C97.632716,26.9767183 97.9908865,27.379668 100.053853,26.346473 C100.501397,27.379668 100.501397,27.6567383 101.53288,27.379668 C103.148302,26.346473 106.105681,25.1759812 105.211268,24.280083 C104.179785,23.246888 103.148302,22.2136929 103.148302,22.2136929 C103.148302,22.2136929 102.116819,23.246888 101.085336,23.246888 C100.053853,23.246888 101.085336,21.698608 102.116819,20.9229555 C102.034738,20.1473029 101.53288,20.1473029 101.085336,19.1023621 C100.786973,18.405735 99.0678343,19.0984469 95.9279205,21.1804979 C94.8964374,19.8495407 99.0223695,17.4124496 100.053853,17.0477178 Z"/>
        <g transform="translate(13.236 44.902)">
          <path fill="#88491E" stroke="#000" d="M5.27942327,7.95810027 C5.27942327,12.0846432 5.27942327,18.2430527 5.27942327,18.937694 C5.27942327,19.6323354 11.7804474,23.8306 16.279542,25.0507042 C20.7786367,26.2708085 20.7786367,26.2708085 22.2711844,25.3056564 C23.7637319,24.3405043 25.1031445,23.3120438 25.1031445,20.7630244 C25.1031445,18.2140051 25.1031445,10.3368549 25.1031445,8.60210895 C25.1031445,6.61241081 24.2349009,5.66855598 22.2711844,5.19408055 C17.4562989,4.03070247 9.51124502,4.03070247 7.76801237,4.03070247 C5.27942327,4.03070247 5.27942327,3.83155734 5.27942327,7.95810027 Z"/>
          <path stroke="#000" d="M24.9293685,11.4077475 L20.8034364,13.9619648"/>
          <path fill="#AA6535" stroke="#000" d="M1.88051796,9.12147833 C1.88051796,13.2480212 1.88051796,19.4064307 1.88051796,20.1010721 C1.88051796,20.7957135 3.04534362,22.6104956 7.5444383,23.8306 C12.043533,25.0507042 17.4562989,26.4690344 18.872279,26.4690344 C20.2882591,26.4690344 21.7042392,24.4754219 21.7042392,21.9264025 C21.7042392,19.3773831 21.7042392,11.500233 21.7042392,9.76548703 C21.7042392,8.03074108 6.85769613,5.19408055 4.36910704,5.19408055 C1.88051796,5.19408055 1.88051796,4.99493542 1.88051796,9.12147833 Z"/>
          <g transform="translate(1.031 5.166)">
            <path fill="#88491E" d="M20.6727562,8.97889657 C19.7473305,9.67434141 18.4829146,10.2833421 17.7089874,10.542043 C16.3748294,10.9880125 12.1385761,10.4937919 10.4886063,11.4673672 C8.83863632,12.4409425 6.36267416,11.1017572 6.36267416,10.542043 C6.36267416,9.9823289 4.29970813,7.91499342 3.26822512,6.36844618 C2.62844033,5.40918911 2.02443779,4.78638952 0.849034935,4.08110675 C0.849034935,4.03903692 0.849034935,3.99716652 0.849034935,3.95550323 C0.849034935,-0.171039682 0.849034935,0.0281054457 3.33762403,0.0281054457 C5.82621311,0.0281054457 20.6727562,2.86476597 20.6727562,4.59951192 C20.6727562,5.30341704 20.6727562,7.01865676 20.6727562,8.97889657 Z"/>
            <path stroke="#000" d="M0.849034935,3.95550323 C0.849034935,8.08204615 0.849034935,14.2404556 0.849034935,14.935097 C0.849034935,15.6297384 2.0138606,17.4445205 6.51295529,18.6646249 C11.01205,19.8847291 16.4248159,21.3030593 17.840796,21.3030593 C19.2567761,21.3030593 20.6727562,19.3094468 20.6727562,16.7604274 C20.6727562,14.211408 20.6727562,6.33425787 20.6727562,4.59951192 C20.6727562,2.86476597 5.82621311,0.0281054457 3.33762403,0.0281054457 C0.849034935,0.0281054457 0.849034935,-0.171039682 0.849034935,3.95550323 Z"/>
          </g>
          <path fill="#AA6535" stroke="#000" d="M12.043533,2.35742002 C16.279542,3.63126459 18.872279,3.63126459 21.7042392,3.77575029 C22.8192171,3.8326361 24.6586476,5.46564278 24.5361993,6.24858982 C22.8192171,5.19408055 21.7042392,8.28268565 20.6727562,10.5269152 C19.6755198,12.6966335 19.40205,12.8223532 16.8093129,12.8223532 C14.216576,12.8223532 12.3102183,12.5449848 11.1453927,13.5854018 C9.98056696,14.6258186 8.80112327,15.3816453 7.85649054,13.5854018 C6.91185779,11.7891581 4.41023303,8.97752577 3.33762403,8.66234127 C2.26501502,8.34715676 0.849034935,7.37555509 0.849034935,6.28481782 C0.849034935,5.19408055 1.88051796,0.541222601 3.29649803,0.541222601 C4.71247812,0.541222601 7.80752395,1.08357547 12.043533,2.35742002 Z"/>
          <path fill="#FCDE32" stroke="#000" d="M7.66383777,8.8268272 C7.66240736,6.83406021 9.23501217,6.25247196 10.8089595,7.54134466 C12.382907,8.83021736 12.3842928,10.7609414 10.8114899,11.0664664 C9.23868696,11.3719914 7.66526818,10.8195942 7.66383777,8.8268272 Z" transform="rotate(30 9.827 9)"/>
        </g>
      </g>
      <g transform="translate(22.693 140.515)">
        <path fill="#F34D4D" stroke="#000" stroke-linecap="round" stroke-linejoin="round" d="M24.4512692,2.7678898 C22.3900151,7.95732352 17.3489336,13.8688489 13.224912,20.0812833 C10.4755643,24.2229061 7.7259791,27.7106641 4.97615641,30.5445571 C12.5440772,39.0181059 17.0159264,43.7385641 18.3917037,44.7059316 C20.4553698,46.1569828 28.7037394,34.6308635 28.703709,34.5472384 C28.7036888,34.4914884 30.4220381,31.9222442 33.858757,26.8395057" transform="rotate(13 19.417 23.8)"/>
        <path fill="#DC3D4F" fill-rule="nonzero" d="M29.8822342,10.0880044 L30.3359605,13.1807337 C30.3116684,13.8688252 30.1830189,14.512721 29.9130075,15.038638 C28.8815244,17.0477178 21.6611433,23.4270161 21.6611433,24.7579734 C21.6611433,26.0889306 19.5981773,27.3968094 16.5037283,24.7579734 C13.6503325,22.324699 13.4280569,23.9725397 11.7933022,21.0037856 C12.5947612,20.2962395 13.4037302,19.5561103 14.2202093,18.7833979 C19.0067019,14.2534806 24.4382789,10.1137153 27.8283223,6.04225316 C28.2536651,6.89775185 28.6047325,7.60020503 28.8815244,7.9595676 C29.2452442,8.43178964 29.608964,9.20138434 29.8822342,10.0880046 L29.8822342,10.0880044 Z M32.2056853,25.9253146 L32.8049408,30.0100126 C28.3129375,34.1893873 26.0606751,36.3062376 26.0481539,36.3605633 C26.0293719,36.4420519 15.3995948,45.8172781 13.7152358,43.9391933 C13.3642904,43.5478839 12.8011455,42.7313507 12.0258013,41.4895936 C14.3116873,40.8427441 18.0768419,39.2354787 19.5981773,37.7116183 C21.6611433,35.6452282 28.8815244,29.4460581 29.9130075,28.4128631 C30.5830061,27.7417524 31.2530049,26.4174009 32.2056853,25.9253146 Z"/>
        <path stroke="#000" stroke-linecap="round" stroke-linejoin="round" d="M24.4512692,2.7678898 C22.3900151,7.95732352 17.3489336,13.8688489 13.224912,20.0812833 C10.4755643,24.2229061 7.7259791,27.7106641 4.97615641,30.5445571 C12.5440772,39.0181059 17.0159264,43.7385641 18.3917037,44.7059316 C20.4553698,46.1569828 28.7037394,34.6308635 28.703709,34.5472384 C28.7036888,34.4914884 30.4220381,31.9222442 33.858757,26.8395057" transform="rotate(13 19.417 23.8)"/>
        <path fill="#1D487A" stroke="#000" stroke-linecap="round" stroke-linejoin="round" d="M14.3809962,7.30570192 C18.7964556,9.09467824 21.5387511,8.80307017 25.9836931,10.4226433 C34.70991,13.6021552 31.5640815,21.9212272 25.5109188,20.3798991 C14.4999594,17.5761583 10.9131951,16.7478616 10.8441126,15.9231858 C10.5657687,12.6004472 12.4597488,9.9567302 14.3809962,7.30570192 Z" transform="rotate(-69 21.094 13.937)"/>
        <path fill="#FCDE32" stroke="#000" d="M24.7880736,4.82484687 C24.7862089,2.55408916 26.1603077,1.89121034 27.5361568,3.35972152 C28.912006,4.82823272 28.9138127,7.0282925 27.5394555,7.37659723 C26.1650984,7.72490196 24.7899384,7.09560459 24.7880736,4.82484687 Z" transform="rotate(49 26.679 5.022)"/>
      </g>
      <path fill="#FCDE32" fill-rule="nonzero" stroke="#000" d="M111.708402,174.091122 C111.708402,171.585164 113.456832,170.85238 115.205263,172.471751 C116.953693,174.091122 116.953693,176.519059 115.205263,176.904686 C113.456832,177.290312 111.708402,176.59708 111.708402,174.091122 Z M111.806871,190.873211 C111.806871,188.367253 113.555302,187.63447 115.303733,189.25384 C117.052163,190.873211 117.052163,193.301148 115.303733,193.686774 C113.555302,194.072401 111.806871,193.379168 111.806871,190.873211 Z"/>
      <path fill="#FCDE32" stroke="#000" d="M113.856815,218.179233 C113.858578,215.944106 115.492068,215.289229 117.123902,216.7323 C118.755736,218.175371 118.754028,220.34091 117.120783,220.686149 C115.487538,221.031386 113.855052,220.414361 113.856815,218.179233 Z" transform="rotate(-54 116.102 218.37)"/>
    </g>
  </g>
</svg>
