<svg height="57" viewBox="0 0 568 57" width="568" xmlns="http://www.w3.org/2000/svg"><g><path d="m57.04 55.67h1.43 6.55v-54.17h-7.98z"/><path d="m119.16 55.67h1.44 6.54v-54.17h-7.98z"/><path d="m163.85.49c-6.71 0-13.14 2.57-17.89 7.47-4.74 4.9-7.74 12.09-7.74 21.15 0 8.29 2.67 15.24 7.14 20.11s10.74 7.63 17.72 7.63h.02.1c5.99 0 12.44-2.16 17.43-6.86s8.42-11.93 8.42-21.75c0-8.12-2.5-15.07-6.94-20-4.43-4.92-10.82-7.76-18.26-7.75zm17.2 27.97c0 6.24-2.01 11.58-5.2 15.32-3.2 3.75-7.54 5.93-12.43 5.93h-.11c-4.77 0-8.98-2.17-12.08-5.88-3.09-3.71-5.02-8.97-5.02-15.07-.01-5.23 1.41-10.6 4.29-14.55 2.9-3.95 7.13-6.56 13.24-6.58 6.29.03 10.44 2.91 13.26 6.99 2.79 4.08 4.06 9.41 4.05 13.84z"/><path d="m287.42 45.25c-3.03 2.83-6.82 4.46-11.03 4.46h-.1c-4.78 0-8.99-2.17-12.09-5.88-3.09-3.71-5.03-8.97-5.02-15.07-.01-5.23 1.41-10.6 4.29-14.55 2.9-3.95 7.12-6.56 13.24-6.58 4.26.01 7.5 1.35 10.05 3.45l1.11.91 4.94-6.01-1.23-.89c-4.04-2.98-9.1-4.61-14.77-4.61-6.71 0-13.14 2.57-17.88 7.47-4.75 4.9-7.74 12.09-7.74 21.15 0 8.29 2.66 15.24 7.14 20.11 4.47 4.87 10.74 7.63 17.72 7.63h.01.11c5.81 0 12.04-2.04 16.96-6.45l1.26-1.13-6.08-4.87z"/><path d="m232.38 2.95.02 37.6-24.64-39.03h-7.05v54.17l7.68-.02-.01-38.61 24.65 38.61 7.05.02v-54.17h-7.7z"/><path d="m337.38 53 .75-.39c-.83-1.57-1.82-5.08-3.57-13.12-.93-4.42-2.73-7.93-5.37-10.17 4.81-2.89 7.56-7.69 7.52-13.47 0-4.05-1.49-7.95-4.17-10.55-3.44-3.35-8.39-4.8-15.14-4.79-3.9 0-8.21.4-11.41 1.08l-1.7.36v53.78h7.87v-23.2h5.67c2.89.15 4.76.85 6.17 2.19 1.42 1.35 2.48 3.57 3.23 7 .7 3.28 1.31 6.02 1.87 8.17s1.02 3.67 1.58 4.72l.2.36.41.75h8.45l-1.6-3.11zm-25.22-44.99c1.16-.17 2.89-.32 5.15-.32 2.82-.01 5.83.44 7.97 1.73 2.11 1.31 3.52 3.21 3.56 7.01-.01 2.78-1.02 4.9-2.82 6.44-1.8 1.53-4.5 2.47-7.96 2.47h-5.9z"/><path d="m350.34 55.67h1.44 6.55v-54.17h-7.99z"/><path d="m368.23 1.5v7.19h8.62v30.84c.02 5.37.83 10.04 3.56 13.2 2.27 2.74 5.85 3.96 9.83 3.96h.03c3.24 0 5.73-.52 7.6-1.22l1.08-.4-1.03-7.09-1.63.55c-1.07.36-2.86.68-5.41.67-2.42-.04-3.66-.72-4.59-2.02-.93-1.33-1.45-3.59-1.44-6.7v-31.79h14.59v-7.19h-1.44z"/><path d="m410.7 55.67h1.44 6.55v-54.17h-7.99z"/><path d="m538.29 47.69v-46.03h-7.98v54.01h22.55v-7.98z"/><path d="m106.62 39.16 1.42-.18c-.84-6.55-5.64-10.91-10.68-13.7-2.7-1.5-5.42-2.73-7.87-4.2-2.12-1.25-3.98-2.63-4.73-4.6-.31-.79-.45-1.57-.45-2.34.01-3.37 2.76-6.51 7.35-6.63h.12c2.74-.01 5.42 1.77 6.67 4.38l.11.23.64 1.33 6.87-3.53-.85-1.52c-.68-1.27-1.57-2.42-2.56-3.41-2.91-2.98-6.86-4.49-10.84-4.49-2.12 0-4.27.43-6.28 1.31-4.89 2.13-8.51 6.93-8.54 12.44 0 .47.03.94.08 1.42.4 3.5 1.99 6.23 4.11 8.33 2.12 2.11 4.73 3.64 7.34 5.01 2.67 1.39 5.82 2.85 7.82 4.54 1.96 1.65 3.63 3.6 4.12 5.72.13.57.2 1.17.2 1.77v.01c.01 3.01-1.8 6.05-4.54 7.54-1.28.7-2.69 1.04-4.11 1.04-2.54 0-5.05-1.09-6.73-3.08-.66-.78-1.19-1.71-1.55-2.68-.13-.36-.22-.66-.28-.87-.02-.11-.05-.19-.06-.24s-.02-.06-.02-.06l-.02-.12-.23-1.15h-7.52l.18 1.66c1.02 8.26 8 13.77 15.87 13.77h.04.03c.56 0 1.14-.03 1.72-.09 8.18-.82 14.68-7.56 14.7-15.81 0-.64-.04-1.3-.12-1.96z"/><path d="m465.63 45.25c-3.03 2.83-6.83 4.46-11.03 4.46h-.11c-4.77 0-8.99-2.17-12.08-5.88s-5.03-8.97-5.02-15.07c-.01-5.23 1.41-10.6 4.28-14.55 2.91-3.95 7.13-6.56 13.25-6.58 4.25.01 7.5 1.35 10.05 3.45l1.11.91 4.94-6.01-1.22-.89c-4.05-2.98-9.1-4.61-14.78-4.61-6.7 0-13.14 2.57-17.88 7.47s-7.75 12.09-7.74 21.15c-.01 8.29 2.66 15.24 7.15 20.11 4.46 4.87 10.74 7.63 17.71 7.63h.02.11c5.8 0 12.04-2.04 16.95-6.45l1.26-1.13-6.08-4.87z"/><path d="m37.94 2.41-14.06 39.76-14.55-40.71h-8.44l19.42 54.2h7.12l19.37-54.2h-8.52z"/><path d="m496.92 1.46-19.41 54.2h8.43l14.56-40.71 14.4 40.71h1.02 7.5l-19.37-54.2z"/><path d="m567.27 8.18c0 3.54-2.84 6.34-6.46 6.34-3.61 0-6.49-2.81-6.49-6.34s2.88-6.3 6.53-6.3c3.58 0 6.42 2.77 6.42 6.3zm-11.33 0c0 2.81 2.12 5.04 4.92 5.04 2.73.04 4.81-2.23 4.81-4.99 0-2.8-2.08-5.07-4.88-5.07-2.74-.01-4.85 2.26-4.85 5.02zm3.88 3.27h-1.46v-6.3c.57-.08 1.38-.19 2.42-.19 1.19 0 1.73.19 2.15.5.38.27.65.73.65 1.34 0 .77-.58 1.27-1.3 1.5v.08c.61.19.92.69 1.11 1.54.19.96.34 1.31.46 1.54h-1.54c-.19-.23-.31-.77-.5-1.54-.12-.65-.5-.96-1.31-.96h-.69v2.49zm.04-3.54h.69c.81 0 1.46-.27 1.46-.92 0-.58-.42-.96-1.34-.96-.39 0-.65.04-.81.08z"/></g></svg>