<?xml version="1.0" encoding="utf-8"?>
<!-- Generator: Adobe Illustrator 23.0.1, SVG Export Plug-In . SVG Version: 6.00 Build 0)  -->
<svg version="1.1" xmlns="http://www.w3.org/2000/svg" xmlns:xlink="http://www.w3.org/1999/xlink" x="0px" y="0px"
	 viewBox="0 0 286 120" style="enable-background:new 0 0 286 120;" xml:space="preserve">
<style type="text/css">
	.st0{display:none;}
	.st1{display:inline;fill:#FFFFFF;}
	.st2{fill:#343741;}
	.st3{fill:#3CB768;}
</style>
<g id="Backgrounds" class="st0">
	<rect x="18.76" class="st1" width="248.47" height="120"/>
</g>
<g id="Layer_1">
	<g>
		<polygon class="st2" points="144.52,24.37 144.52,70.29 159.13,55.49 168.16,55.49 151.06,72.6 171.24,95.37 162.2,95.37 
			146.26,77.21 144.52,78.94 144.52,95.37 137.61,95.37 137.61,24.37 		"/>
		<path class="st2" d="M185.7,95.48h-6.92V55.61h6.92V95.48z M182.24,35.63c2.69,0,4.9,2.21,4.9,4.9s-2.21,4.9-4.9,4.9
			c-2.69,0-4.9-2.21-4.9-4.9S179.55,35.63,182.24,35.63"/>
		<path class="st2" d="M219.81,56.07c-1.71-0.82-3.92-1.54-5.95-1.54c-5.38,0-8.36,4.23-9.03,5.28v-4.32h-6.92v39.87h6.92V74.32
			c0-6.54,1.15-9.22,2.3-10.76c1.06-1.35,2.79-2.5,5.58-2.5c0.92,0,2.15,0.24,3.47,1C217.13,59.9,218.35,57.9,219.81,56.07z"/>
		<path class="st2" d="M229.51,75.52c0,8.55,4.8,14.99,13.07,14.99c8.46,0,13.26-7.01,13.26-14.89c0-10.28-7.11-14.8-13.26-14.8
			C235.75,60.82,229.51,65.82,229.51,75.52 M255.45,55.63h6.92V95.5h-6.92v-5.57c-2.3,2.98-6.63,6.73-13.64,6.73
			c-10.09,0-19.41-7.11-19.41-21.14c0-13.74,9.22-20.85,19.41-20.85c7.69,0,11.82,4.23,13.64,6.63V55.63z"/>
		<path class="st3" d="M45.09,77.54c0.04,2.1,1.11,3.67,2.61,4.52c0.65,0.37,13.39,7.74,22.92,13.24c-4.36,2.52-7.6,4.39-7.6,4.39
			c-2.02,1.07-3.63,1.07-5.45,0.03c-7.79-4.48-29.73-17.16-30.58-17.65c-1.5-0.85-2.58-2.42-2.61-4.52V42.13
			c0.04-2.1,1.11-3.67,2.61-4.52c0.86-0.49,22.79-13.18,30.58-17.65c1.83-1.05,3.44-1.05,5.45,0.03c0,0,3.24,1.87,7.6,4.39
			c-9.53,5.5-22.27,12.87-22.92,13.24c-1.5,0.85-2.58,2.42-2.61,4.52V77.54z"/>
		<path class="st3" d="M96.14,77.54c-0.04,2.1-1.11,3.67-2.61,4.52c-0.65,0.37-13.39,7.74-22.92,13.24c4.36,2.52,7.6,4.39,7.6,4.39
			c2.02,1.07,3.63,1.07,5.45,0.03c7.79-4.48,29.73-17.16,30.58-17.65c1.5-0.85,2.58-2.42,2.61-4.52V42.13
			c-0.04-2.1-1.11-3.67-2.61-4.52c-0.86-0.49-22.79-13.18-30.58-17.65c-1.83-1.05-3.44-1.05-5.45,0.03c0,0-3.24,1.87-7.6,4.39
			c9.53,5.5,22.27,12.87,22.92,13.24c1.5,0.85,2.58,2.42,2.61,4.52V77.54z"/>
	</g>
</g>
</svg>
