<?xml version="1.0" encoding="utf-8"?>
<!-- Generator: Adobe Illustrator 23.0.1, SVG Export Plug-In . SVG Version: 6.00 Build 0)  -->
<svg version="1.1" id="Layer_1" xmlns="http://www.w3.org/2000/svg" xmlns:xlink="http://www.w3.org/1999/xlink" x="0px" y="0px"
	 viewBox="0 0 222.05 60.22" style="enable-background:new 0 0 222.05 60.22;" xml:space="preserve">
<style type="text/css">
	.st0{fill:#88B04A;}
	.st1{fill:#3EC7F4;}
	.st2{fill:#2079B9;}
	.st3{fill:#42505F;}
	.st4{fill:#788890;}
	.st5{fill:#F79D1F;}
	.st6{fill:#FFFFFF;}
	.st7{fill:#41505F;}
	.st8{fill:#88B04B;}
</style>
<symbol  id="NP_picto" viewBox="-32.82 -35.31 65.65 70.62">
	<g>
		<path class="st0" d="M0.85,35.01c-0.49,0.41-1.22,0.41-1.71,0c-7.41-6.14-11.02-13.12-10.36-20.14c0.56-5.94,4.18-11.9,11.14-17.4
			c0.01,0,0.01-0.01,0.02-0.01c0,0,0,0,0.01,0C-0.04-2.53-0.02-2.52,0-2.51c0.02-0.01,0.03-0.03,0.05-0.04c0,0,0,0,0.01,0
			c0.01,0.01,0.01,0.01,0.02,0.01C7.04,2.97,10.65,8.93,11.21,14.87C11.87,21.89,8.26,28.87,0.85,35.01z"/>
		<path class="st1" d="M-17.61,15.43c2.31,0,4.46-0.39,6.4-1.16c1.68-0.66,3.2-1.62,4.56-2.85c3.37-3.07,5.7-7.91,6.66-14.52
			c-0.02-0.01-0.04-0.02-0.07-0.03c0,0-0.01,0-0.01,0c-0.01,0-0.02-0.01-0.04-0.01c-0.01,0-0.01,0-0.02-0.01
			c-3.82-1.51-7.32-2.23-10.45-2.23c-1.88,0-3.62,0.26-5.23,0.76c-1.75,0.55-3.35,1.38-4.76,2.49c-3.77,2.94-6.32,7.8-7.44,14.22
			c-0.11,0.63,0.26,1.27,0.86,1.49C-23.75,14.81-20.55,15.43-17.61,15.43z"/>
		<path class="st2" d="M-32.81-20.96c-0.1-0.63,0.27-1.26,0.87-1.47c9.05-3.26,16.9-2.82,22.61,1.32c4.83,3.5,8.12,9.65,9.32,18.44
			c0,0.01,0,0.02,0,0.02c0,0,0,0-0.01,0c-0.02,0.01-0.04,0.02-0.06,0.02c0,0.02,0.01,0.04,0.01,0.06c0,0,0,0.01,0,0.01
			c-0.01,0-0.01,0.01-0.02,0.01c-8.28,3.2-15.26,3.28-20.65,0.74C-27.12-4.8-31.29-11.46-32.81-20.96z"/>
		<path class="st3" d="M-7.29-11.12c-1.16-2-1.91-4.05-2.22-6.12c-0.27-1.78-0.21-3.58,0.17-5.38c0.91-4.22,3.66-8.43,8.4-12.39
			c0.49-0.41,1.2-0.4,1.7-0.01c2.58,2.01,4.99,4.92,6.41,7.35c0.94,1.62,1.6,3.26,1.97,4.9c0.41,1.79,0.49,3.59,0.24,5.37
			C8.73-12.65,5.81-8.01,0.83-3.82c-0.49,0.41-1.22,0.41-1.72,0C-3.67-6.13-5.82-8.58-7.29-11.12z"/>
		<path class="st4" d="M32.81-20.96c0.1-0.63-0.27-1.26-0.87-1.47c-9.05-3.26-16.9-2.82-22.61,1.32c-4.83,3.5-8.12,9.65-9.32,18.44
			c0,0.01,0,0.02,0,0.02c0,0,0,0,0.01,0c0.02,0.01,0.04,0.02,0.06,0.02c0,0.02-0.01,0.04-0.01,0.06c0,0,0,0.01,0,0.01
			c0.01,0,0.01,0.01,0.02,0.01c8.28,3.2,15.26,3.28,20.65,0.74C27.12-4.8,31.29-11.46,32.81-20.96z"/>
		<path class="st5" d="M17.6,15.43c-2.31,0-4.46-0.39-6.4-1.16c-1.68-0.66-3.2-1.62-4.56-2.85C3.26,8.35,0.93,3.51-0.02-3.1
			C0-3.11,0.02-3.12,0.04-3.13c0,0,0.01,0,0.01,0c0.01,0,0.02-0.01,0.04-0.01c0.01,0,0.01,0,0.02-0.01
			c3.82-1.51,7.32-2.23,10.45-2.23c1.88,0,3.62,0.26,5.23,0.76c1.75,0.55,3.35,1.38,4.76,2.49c3.77,2.94,6.32,7.8,7.44,14.22
			c0.11,0.63-0.26,1.27-0.86,1.49C23.73,14.81,20.53,15.43,17.6,15.43z"/>
		<path class="st0" d="M-0.21-2.62c0-0.01,0.01-0.01,0.02-0.01c0,0,0,0,0.01,0c0.02,0.01,0.03,0.03,0.05,0.04
			c0.02-0.01,0.03-0.03,0.05-0.04c0,0,0,0,0.01,0c0.01,0.01,0.01,0.01,0.02,0.01C6.9,2.89,10.58,8.32,11.14,14.25
			C1.43,11.37,0.76,0.71-0.21-2.62z"/>
	</g>
	<path class="st6" d="M2.37-2.74C2.38-2.66,2.4-2.59,2.4-2.5c0,0.08-0.02,0.16-0.02,0.24c4.02,0.73,7.46,3.13,9.56,6.46
		c0.13,0.2-0.03,0.48-0.27,0.47C7.7,4.5,3.88,2.7,1.24-0.46c-0.13,0.08-0.26,0.14-0.4,0.19c1.42,3.88,1.08,8.1-0.77,11.62
		c-0.11,0.21-0.43,0.21-0.54,0c-1.87-3.57-2.2-7.86-0.71-11.78c-0.11-0.06-0.21-0.13-0.31-0.21c-2.65,3.27-6.54,5.13-10.57,5.3
		c-0.24,0.01-0.4-0.27-0.27-0.47c2.17-3.44,5.76-5.88,9.95-6.52c0-0.06-0.02-0.11-0.02-0.17c0-0.06,0.01-0.11,0.02-0.17
		c-4.19-0.64-7.78-3.09-9.95-6.52c-0.13-0.2,0.03-0.48,0.27-0.47C-8.03-9.5-4.14-7.64-1.49-4.37c0.1-0.08,0.2-0.15,0.31-0.21
		c-1.49-3.92-1.16-8.21,0.71-11.78c0.11-0.21,0.43-0.21,0.54,0c1.85,3.52,2.2,7.74,0.77,11.62c0.14,0.05,0.27,0.12,0.4,0.19
		C3.88-7.71,7.7-9.51,11.66-9.67c0.24-0.01,0.4,0.27,0.27,0.47C9.83-5.87,6.39-3.47,2.37-2.74z"/>
</symbol>
<g>
	<path class="st7" d="M148.08,28.81V44.4h-5.02V29.1c0-4.5-2.77-7.28-6.52-7.28s-8.26,2.14-8.26,7.97V44.4h-5.02V17.44h5.02v4.1
		c1.62-3.29,6-4.68,8.95-4.68C143.93,16.86,148.14,21.25,148.08,28.81z"/>
	<path class="st7" d="M180.53,30.95c0,8.55-6.06,14.03-13.45,14.03c-4.04,0-7.85-1.62-9.64-4.79v17.32h-5.02V17.44h5.02v4.27
		c1.79-3.12,5.72-4.85,9.58-4.85C174.41,16.86,180.53,22.46,180.53,30.95z M175.45,31c0-5.37-3.93-9.41-8.89-9.41
		c-4.79,0-9.12,3.64-9.12,9.41c0,5.83,4.73,9.24,9.12,9.24C171.52,40.24,175.45,36.43,175.45,31z"/>
	<path class="st7" d="M190.75,13.91v3.52h6.29v4.33h-6.29V44.4h-5.02V21.77h-5.2v-4.33h5.2v-2.83c0-7.04,2.95-11.89,10.16-11.89
		h2.89v4.73h-2.02C191.96,7.45,190.69,10.39,190.75,13.91z"/>
	<path class="st7" d="M198.37,36.37h4.68c0.06,2.31,2.08,4.22,5.37,4.22c3.41,0,5.43-1.56,5.43-3.75c0-2.02-1.56-3.06-3.7-3.52
		l-3.7-0.87c-4.5-1.21-7.1-3.41-7.1-7.74c0-4.45,3.81-7.85,9.24-7.85c4.56,0,9.3,2.42,9.3,7.85h-4.85
		c-0.06-2.08-2.19-3.46-4.33-3.46c-2.6,0-4.33,1.56-4.33,3.64c0,1.85,1.73,2.83,3.46,3.23l3.98,0.98c5.6,1.39,7.04,4.73,7.04,7.79
		c0,5.02-4.85,8.08-10.45,8.08C203.57,44.98,198.6,41.92,198.37,36.37z"/>
</g>
<g>
	<g>
		<g>
			<g id="XMLID_100_">
				<path class="st8" d="M105.11,10.97c-0.43-0.43-0.99-0.68-1.59-0.72c-9.31-0.57-15.33,4.13-18.53,8.56
					c-3.2-4.43-9.23-9.14-18.54-8.56c-0.6,0.04-1.17,0.3-1.6,0.72c-5.98,5.98-5.32,15.4-5.24,16.33c0.04,0.67,0.43,5.31,3.47,10.64
					c2.91,5.11,8.93,11.89,21.06,15.3c0.06,0.02,0.13,0.04,0.19,0.06h0c0.05,0.01,0.09,0.02,0.14,0.03
					c0.06,0.01,0.12,0.02,0.19,0.03c0.11,0.02,0.22,0.02,0.33,0.02c0.1,0,0.21,0,0.31-0.02c0.06-0.01,0.11-0.02,0.17-0.03
					c0.05-0.01,0.1-0.02,0.16-0.04c0.07-0.02,0.14-0.04,0.21-0.06c22.43-6.31,24.38-24.21,24.51-25.89
					C110.4,26.8,111.22,17.09,105.11,10.97z M82.52,31.8l-0.02-0.02l-6.64-7.16c-0.93-1-2.49-1.06-3.49-0.13
					c-1,0.93-1.06,2.49-0.13,3.49L82.5,39.04l0.02,0.02v8.47c0,0-0.01,0-0.02,0c-17.01-6.19-17.93-19.92-17.96-20.52
					c0-0.04-0.01-0.09-0.01-0.13c-0.01-0.08-0.65-7.14,3.19-11.73c0.1,0,0.2,0,0.3,0c9.77,0,13.65,7.38,14.48,9.24
					c0,0.01,0.01,0.03,0.02,0.04V31.8z M105.43,26.88c0,0.04-0.01,0.09-0.01,0.12c-0.03,0.61-0.95,14.34-17.96,20.53
					c-0.01,0-0.01,0-0.02,0.01v-8.47l0.02-0.02l10.27-11.06c0.93-1,0.87-2.56-0.13-3.49c-1-0.93-2.57-0.87-3.5,0.13l-6.64,7.16
					l-0.02,0.02v-7.37c0.01-0.02,0.01-0.03,0.02-0.05c0.82-1.83,4.76-9.23,14.49-9.23c0.09,0,0.19,0,0.28,0
					C106.04,19.71,105.43,26.81,105.43,26.88z"/>
			</g>
		</g>
	</g>
	
		<use xlink:href="#NP_picto"  width="65.65" height="70.62" x="-32.82" y="-35.31" transform="matrix(0.8069 0 0 -0.8069 29.8019 29.2553)" style="overflow:visible;"/>
</g>
</svg>
